<svg xmlns="http://www.w3.org/2000/svg" xmlns:xlink="http://www.w3.org/1999/xlink" width="53" height="136" viewBox="0 0 53 136">
  <defs>
    <polygon id="guirnalda-a" points=".638 .065 37.565 .065 37.565 72 .638 72"/>
    <polygon id="guirnalda-c" points=".917 .796 13.947 .796 13.947 15.629 .917 15.629"/>
  </defs>
  <g fill="none" fill-rule="evenodd" opacity=".4">
    <g transform="translate(15 63.204)">
      <mask id="guirnalda-b" fill="#fff">
        <use xlink:href="#guirnalda-a"/>
      </mask>
      <path fill="#FEFEFE" d="M18.7515,49.0293 C24.4805,55.3413 30.2295,61.6333 35.9165,67.9833 C36.8615,69.0403 37.5345,70.3413 37.5655,72.0003 C14.1185,54.0753 1.4935,30.5743 0.6385,0.0653 C2.4125,8.7953 3.0145,16.9893 5.8425,24.3243 C9.1825,32.9863 14.4465,40.9063 18.8765,49.1473 L18.7515,49.0293 Z" mask="url(#guirnalda-b)"/>
    </g>
    <path fill="#FEFEFE" d="M15.9429 124.1308C24.8039 122.5518 33.4639 120.5958 41.1239 127.7758 33.6289 133.7418 23.9969 132.2478 15.9429 124.1308M30.1104 115.6483C22.9564 119.2943 12.6514 115.4573 8.1584 106.1993 16.5374 106.8063 24.8624 107.1413 30.1104 115.6483M21.2861 101.7851C11.4411 102.8181 5.4151 98.4881 1.7151 87.9321 9.9571 90.1731 17.9121 92.2661 21.2861 101.7851M0 67.9945C7.689 71.9545 14.192 76.2125 15.412 85.2665 6.325 85.8615.748 77.3395 0 67.9945M12.1802 68.8783C4.0412 65.2223 1.0732 59.6583 1.7982 49.9163 9.4452 54.0113 13.5102 61.2353 12.1802 68.8783M13.9263 52.9877C6.5453 49.3367 4.8443 44.3037 6.8113 32.8327 12.9403 36.9467 15.5903 44.2247 13.9263 52.9877M26.957 2.0224C28.735 9.4194 30.897 16.2474 25.403 22.6194 20.31 16.2794 20.729 9.6664 26.957 2.0224M33.8765 112.3515C30.2835 104.3695 32.8265 97.9665 38.9275 92.3685 41.9225 98.7875 39.7465 106.9285 33.7355 112.2175 33.7515 112.2335 33.8765 112.3515 33.8765 112.3515M15.6714 16.4989C19.3364 23.2529 21.7364 29.5629 18.3674 36.7259 11.9314 33.0159 10.8994 26.0599 15.6714 16.4989M26.9004 98.0917C24.2574 90.9467 26.5524 85.4987 34.5994 79.8217 36.3684 86.9197 33.0954 94.6877 26.9004 98.0917"/>
    <g transform="translate(31 .204)">
      <mask id="guirnalda-d" fill="#fff">
        <use xlink:href="#guirnalda-c"/>
      </mask>
      <path fill="#FEFEFE" d="M0.9175,15.6289 C1.5655,7.1249 5.4515,2.8159 13.9475,0.7959 C13.3195,8.2909 8.3655,14.0639 0.9175,15.6289" mask="url(#guirnalda-d)"/>
    </g>
    <path fill="#FEFEFE" d="M21.5679 83.6132C19.7279 76.0512 24.1429 69.6852 32.6229 67.1072 31.3289 75.9652 28.4689 80.3212 21.5679 83.6132M19.3706 68.6898C19.5446 60.4438 23.7676 56.0668 32.9486 54.2078 31.7026 61.5568 27.1656 66.4868 19.3706 68.6898M19.4951 52.7387C19.7761 46.5067 27.2511 41.4627 35.7771 42.0467 33.1141 49.1247 26.8571 53.3137 19.4951 52.7387M41.5063 29.598C36.6403 35.326 31.8153 40.169 23.5993 39.007 25.1793 31.826 31.0633 28.705 41.5063 29.598M28.9702 24.5922C33.1172 16.7392 40.0732 16.2162 47.6032 17.0672 44.1732 23.4172 35.0692 27.2242 28.9702 24.5922M44.915 122.8104C40.353 115.9354 40.887 110.2674 46.616 102.5884 50.13 110.4534 49.61 117.5764 44.915 122.8104"/>
  </g>
</svg>
