<svg xmlns="http://www.w3.org/2000/svg" width="66" height="64" viewBox="0 0 66 64">
  <path fill="#FFF" fill-rule="evenodd" d="M59.7883101,16.779469 C50.388145,19.7850188 40.9183231,19.6543735 31.4618696,16.9023463 C28.4272205,16.0196072 27.3317073,14.1319581 28.3976691,11 C39.7468205,14.8353245 51.0861214,14.8614536 62.4233114,11.0741501 C63.5216391,14.7406949 63.2606016,15.6693364 59.7883101,16.779469 M60.3793905,23.5276729 C50.5169819,26.8449804 40.5862116,26.7907944 30.6920888,23.5649698 C28.012592,22.6909571 27.5312411,20.7416695 28.3847052,18 C39.8821565,21.9590946 51.1216658,21.9379832 62.3470799,18.1189277 C63.5127526,21.4130126 63.2674962,22.5565477 60.3793905,23.5276729 M37,34.0155978 C31.7255652,39.2526033 9.0493913,39.3521734 3,34.1655912 C7.46191304,28.6898728 31.5370435,28.5845582 37,34.0155978 M33.6287752,43.8555877 C24.2108344,46.7108264 14.7992267,46.7150325 5.37706395,43.866804 C2.55111878,43.0122653 1.31617512,41.3326307 2.37660823,38 C13.8506774,41.9032578 25.1544581,41.9684523 36.5722335,38.0070102 C37.6812199,41.1321401 36.6109354,42.951978 33.6287752,43.8555877 M33.2938123,52.0008456 C24.1118173,54.6554713 14.9305233,54.6737451 5.74782729,52.0113882 C2.68856433,51.1244045 1.2809108,49.3033467 2.36048572,46.0365477 C16.9123144,49.8642128 23.2768993,49.8550759 36.6208659,46 C37.7137602,49.2337656 36.3951366,51.1040221 33.2938123,52.0008456 M33.5804777,59.0845842 C24.1497387,61.6543978 14.7330554,61.7130694 5.34518652,58.8064121 C2.52559302,57.9325512 1.33717512,56.2476425 2.3653569,53 C13.8271591,56.7984648 25.1216973,56.8274554 36.5293846,53.0379639 C37.6587681,56.1378922 36.785903,58.2114136 33.5804777,59.0845842 M63,6.96254557 C58.0048351,12.2340196 35.1271051,12.3812995 29,7.18187153 C33.3710305,1.72167516 57.4573243,1.56674432 63,6.96254557 M65.9492496,9.7924098 C65.9478636,4.65757857 64.8010009,3.00426045 59.7776727,1.71463052 C50.8882736,-0.567129625 41.944823,-0.583850921 33.0595817,1.73831902 C27.9988332,3.06069483 26.9704681,4.57675897 26.9621524,9.85093433 C26.9524509,15.9730187 26.9600735,22.0951031 26.9600735,28.4164496 C24.7391097,28.4164496 22.9013574,28.2415727 21.1072621,28.4491955 C15.5288662,29.0936621 9.91928675,29.6364075 4.41850331,30.7163245 C1.53921946,31.2820617 -0.134299307,33.3617728 0.00845219078,36.8293515 C0.255841922,42.8559852 0.208720069,48.9049139 0.0243904648,54.9364247 C-0.0753969899,58.2110117 1.18026181,60.3562146 4.14893859,61.3713366 C14.4263535,64.8848989 24.7730652,64.7985055 35.0913652,61.5768692 C37.9436232,60.6871569 39.2311586,58.6102327 39.1098891,55.4624487 C38.936647,50.9407317 39.0669251,46.4085638 39.067618,41.8805763 C39.067618,32.1459953 39.0662321,32.1473887 29.9079613,29.1034162 C29.7208598,29.0414081 29.5940466,28.7947689 29.4409005,28.6428838 L29.4409005,25.2540346 C40.8797305,29.1939899 52.1577918,29.1082932 63.415064,25.3111657 C64.5189627,28.72231 63.0152212,30.722595 59.9342836,31.2367748 C54.8402726,32.0874708 49.6838945,32.5535769 44.5545421,33.1806255 C43.3376895,33.329027 42.1215299,33.476035 40.9053703,33.6230431 L41.0557445,35.0171811 C48.5675223,36.1953357 55.951101,35.3404595 63.2854789,32.5716916 C64.3096863,35.5745576 63.6472084,37.7873424 60.6577426,38.2959485 C55.2394224,39.2177099 49.7531913,39.7284062 44.2988368,40.4439383 C43.1692982,40.5923398 42.0584698,40.8884461 40.9393258,41.1162737 C41.0204031,41.5726258 41.1028663,42.0282811 41.1853296,42.4853298 C48.7130457,43.5234436 56.0924666,42.5807806 63.328443,40.0412338 C64.5889525,43.6802057 63.0658079,45.7912693 59.8338031,46.3026623 C54.7349414,47.1108583 49.5647039,47.4571284 44.4291148,48.0333164 C43.2753224,48.1622097 42.1367752,48.4332341 40.2394277,48.7739305 C41.3765889,49.6559788 41.615663,50.0008555 41.8852277,50.0273309 C48.728984,50.6899123 55.4875051,50.3157733 62.0256623,48.0033574 C64.8502016,47.00426 66.0365636,44.9663521 65.9991433,41.8345927 C65.8695582,31.1552585 65.9520215,20.4731374 65.9492496,9.7924098"/>
</svg>
