<svg xmlns="http://www.w3.org/2000/svg" xmlns:xlink="http://www.w3.org/1999/xlink" width="27" height="21" viewBox="0 0 27 21">
  <defs>
    <polygon id="icono-email-a" points="0 .001 26.772 .001 26.772 21 0 21"/>
  </defs>
  <g fill="none" fill-rule="evenodd">
    <mask id="icono-email-b" fill="#fff">
      <use xlink:href="#icono-email-a"/>
    </mask>
    <path fill="#FEFEFE" d="M13.2861656,20.0251743 C16.7522906,20.0251743 20.2184156,20.0441878 23.6845406,20.0169446 C25.3529156,20.0038905 25.7618531,19.5827554 25.7683219,17.8933905 C25.7871656,12.9782554 25.7863219,8.06312027 25.7691656,3.14798514 C25.7632594,1.41832297 25.2927281,0.926525676 23.6133844,0.922552703 C16.7750719,0.906377027 9.93619688,0.906660811 3.09760313,0.922836486 C1.44582187,0.926809459 0.917071875,1.48132297 0.912853125,3.1485527 C0.900478125,8.01657973 0.902446875,12.8846068 0.911446875,17.75235 C0.914821875,19.5495527 1.36313438,20.0101338 3.16875938,20.02035 C6.54122813,20.0396473 9.91369688,20.0260257 13.2861656,20.0251743 M13.2808219,0.00422837838 C16.7452594,0.00422837838 20.2099781,-0.00513648649 23.6744156,0.00763378378 C25.8138844,0.0155797297 26.7470719,0.940998649 26.7563531,3.12556622 C26.7768844,8.0381473 26.7763219,12.9512959 26.7566344,17.863877 C26.7476344,20.0532689 25.8175406,20.9894716 23.6853844,20.9925932 C16.8031969,21.0028095 9.92100938,21.0019581 3.03882187,20.992877 C0.912853125,20.9897554 0.027196875,20.1369851 0.017353125,18.0168365 C-0.005990625,13.0094716 -0.005709375,8.00210676 0.017071875,2.99474189 C0.026634375,0.869201351 0.909478125,0.0155797297 3.02785312,0.00763378378 C6.44560313,-0.00513648649 9.86335313,0.00422837838 13.2808219,0.00422837838" mask="url(#icono-email-b)"/>
    <path fill="#FEFEFE" d="M2.43869575,2 C2.7999914,2.2739821 3.1784236,2.52706726 3.519441,2.82513888 C6.29699057,5.25266671 9.06511504,7.69180395 11.8415222,10.120783 C13.2015932,11.3107476 13.8270774,11.3449953 15.1937175,10.1628671 C17.9472759,7.78090618 20.667418,5.35889282 23.4052679,2.95806664 C23.7285775,2.67421654 24.0615978,2.3941395 24.4234647,2.16775599 C24.5291401,2.10158235 24.8076091,2.17356069 24.9032882,2.2789161 C24.9981104,2.38369103 25.0300987,2.64316137 24.9681215,2.77637936 C24.8713,2.98418781 24.6902237,3.16384345 24.5137172,3.31882908 C21.5616604,5.91121055 18.6241697,8.52129636 15.6406959,11.075657 C14.1463885,12.3547239 12.811451,12.2940647 11.2880115,10.9700114 C8.46762057,8.51868424 5.66008203,6.05197465 2.87082248,3.56465836 C2.50924122,3.24191674 2.28703726,2.75809453 2,2.34915303 C2.14623192,2.23276869 2.29246383,2.11638434 2.43869575,2"/>
  </g>
</svg>
