<svg xmlns="http://www.w3.org/2000/svg" xmlns:xlink="http://www.w3.org/1999/xlink" width="52" height="52" viewBox="0 0 52 52">
  <defs>
    <polygon id="icono-registro-a" points="0 .298 39.734 .298 39.734 52 0 52"/>
    <polygon id="icono-registro-c" points=".246 .024 9.476 .024 9.476 8.935 .246 8.935"/>
  </defs>
  <g fill="none" fill-rule="evenodd">
    <mask id="icono-registro-b" fill="#fff">
      <use xlink:href="#icono-registro-a"/>
    </mask>
    <path fill="#FEFEFE" d="M39.2532603,23.4807625 C38.8927123,23.4829292 38.5321644,23.4856375 38.1716164,23.4878042 C38.0296986,24.4736375 37.7694247,25.4589292 37.7644932,26.4458458 C37.7288767,33.3927208 37.6850411,40.3406792 37.7825753,47.2864708 C37.8110685,49.3225958 37.3195616,50.1372625 35.0521644,50.1112625 C24.9233973,49.9948042 14.7907945,49.9958875 4.66147945,50.1112625 C2.39572603,50.1361792 1.91736986,49.3301792 1.93490411,47.2843042 C2.02038356,37.1795125 1.9699726,27.0741792 1.98147945,16.9693875 C1.98257534,16.2782208 2.09764384,15.5875958 2.17764384,14.6954708 C5.14312329,14.6954708 7.95791781,14.7555958 10.7688767,14.6786792 C13.5480548,14.6017625 14.525589,13.5975125 14.5770959,10.8501792 C14.6291507,8.08009583 14.5886027,5.30784583 14.5886027,2.46734583 L37.356274,2.46734583 C37.7217534,3.7841375 38.0307945,4.89780417 38.3398356,6.01255417 C38.6675068,5.98167917 38.9951781,5.9518875 39.3223014,5.9210125 C39.3223014,4.63617917 39.7299726,3.14280417 39.1990137,2.13042917 C38.7398356,1.25617917 37.2395616,0.5000125 36.1551781,0.437179167 C32.5168219,0.2270125 28.8576438,0.303929167 25.2077808,0.354304167 C9.39408219,0.572595833 14.5009315,-1.53665417 2.80284932,9.69642917 C2.73709589,9.7592625 2.67572603,9.82642917 2.60887671,9.8876375 C0.765041096,11.5879292 -0.0119452055,13.6684708 -2.84152291e-05,16.1725958 C0.0499726027,26.5482208 0.00887671233,36.9238458 0.0275068493,47.2989292 C0.0340821918,51.0472625 0.957917808,51.9762208 4.70421918,51.9838042 C14.8346301,52.0049292 24.965589,52.0060125 35.096,51.9827208 C38.7453151,51.9751375 39.7031233,51.0472625 39.716274,47.5410542 C39.7420274,40.4138042 39.7403836,33.2860125 39.7031233,26.1582208 C39.6987397,25.2650125 39.4099726,24.3728875 39.2532603,23.4807625" mask="url(#icono-registro-b)"/>
    <path fill="#FEFEFE" d="M39.2120429,9.1759599 C33.0661595,15.0843797 26.7581808,20.8300984 20.5683393,26.6948798 C17.7429363,29.3713665 17.3143454,33.072008 16,37 C17.1495027,36.8076679 17.6346896,36.830834 18.0154761,36.6465831 C22.1837973,34.6327531 26.305413,32.6965025 29.5555605,29.1472484 C33.9541119,24.344334 38.8279596,19.9605634 43.4726759,15.3715309 C46.8601924,12.0248451 46.8448071,12.8604391 43.4116842,9.2282182 C41.857218,7.58396752 40.8362925,7.614676 39.2120429,9.1759599"/>
    <g transform="translate(42 2)">
      <mask id="icono-registro-d" fill="#fff">
        <use xlink:href="#icono-registro-c"/>
      </mask>
      <path fill="#FEFEFE" d="M9.18866667,3.063825 C8.61977778,1.7020125 6.59311111,-0.1609875 5.58033333,0.0387 C3.73866667,0.4015125 2.16033333,2.134575 0.246444444,3.4502625 C2.35644444,5.53995 3.92255556,7.0907625 5.78477778,8.9352 C7.19311111,6.895575 10.457,6.0985125 9.18866667,3.063825" mask="url(#icono-registro-d)"/>
    </g>
  </g>
</svg>
