<svg xmlns="http://www.w3.org/2000/svg" xmlns:xlink="http://www.w3.org/1999/xlink" width="60" height="58" viewBox="0 0 60 58">
  <defs>
    <polygon id="icono-estrella-a" points="0 0 59.89 0 59.89 57.848 0 57.848"/>
  </defs>
  <g fill="none" fill-rule="evenodd">
    <mask id="icono-estrella-b" fill="#fff">
      <use xlink:href="#icono-estrella-a"/>
    </mask>
    <path fill="#FEFEFE" d="M43.6828723,41.2350044 C44.8254255,45.7194879 45.8001064,50.2473121 47.0524468,55.6413121 C42.3635106,52.8279934 38.3492553,50.5679055 34.4945745,48.0617956 C31.4530851,46.083422 28.6905319,46.0400813 25.6343617,48.0318396 C21.7669149,50.5519714 17.738617,52.8260813 13.0707447,55.6317516 C14.2209574,50.4997077 14.9575532,46.1254879 16.2175532,41.907422 C17.4194681,37.8812022 16.4881915,35.0200813 13.1543617,32.4782791 C9.66734043,29.8198396 6.48159574,26.7668725 2.58670213,23.384389 C8.34989362,22.8388066 13.2673404,22.2498835 18.2026596,21.9490484 C21.3035106,21.760389 23.0045745,20.1969385 24.0967021,17.4773121 C25.898617,12.9902791 27.8224468,8.55232308 30.0405319,3.26986154 C32.2981915,8.63390549 34.2245745,13.1018176 36.0571277,17.6079714 C37.1147872,20.2077736 38.7884043,21.7221473 41.7360638,21.9222791 C46.7135106,22.2600813 51.6762766,22.8101253 57.3245745,23.3340374 C56.3473404,24.3168505 55.7167021,25.0345209 55.0018085,25.6546747 C52.112234,28.1620593 49.3024468,30.7790703 46.2596809,33.0875978 C43.3656383,35.2833121 42.8390426,37.9232681 43.6828723,41.2350044 M47.3645745,35.0627846 C51.2684043,31.7841912 55.1281915,28.4488725 58.8935106,25.0147626 C59.5452128,24.4201033 60.0028723,23.1632242 59.8656383,22.3244549 C59.7826596,21.8164769 58.4084043,21.2651582 57.5684043,21.1772022 C52.7096809,20.6698615 47.8432979,20.1491363 42.9660638,19.9343451 C40.3656383,19.8196198 38.8656383,18.816411 37.9228723,16.4390484 C36.128617,11.9118615 34.2124468,7.4312022 32.2401064,2.97986154 C31.821383,2.03465275 30.9443617,1.29276264 29.9135106,0.000191208791 C28.928617,1.40685055 28.1332979,2.23032308 27.7018085,3.2124989 C25.7020213,7.76836703 23.9537234,12.443422 21.7701064,16.9075099 C21.1490426,18.1764989 19.4594681,19.526433 18.0973404,19.7252901 C13.1658511,20.4435978 8.15840426,20.6175978 3.19755319,21.1631802 C2.09329787,21.2849165 1.0637234,22.0797077 -0.000319148936,22.5647407 C0.523723404,23.5335319 0.83712766,24.7317736 1.60691489,25.4303231 C5.22287234,28.713378 8.9262766,31.9046527 12.6781915,35.0341033 C14.427766,36.4930264 15.0175532,38.0258835 14.391383,40.3210264 C13.1109574,45.0171143 12.0367021,49.7724769 11.0384043,54.5361253 C10.8232979,55.5629165 11.288617,56.7331143 11.4405319,57.8376637 C12.525,57.6298835 13.7562766,57.6808725 14.6684043,57.1677956 C18.4573404,55.0339055 22.268617,52.9025648 25.8411702,50.4359714 C28.7581915,48.4219055 31.1932979,48.2096637 34.1824468,50.3594879 C37.5303191,52.7680813 41.1884043,54.762389 44.7992553,56.7802791 C45.9092553,57.400433 47.3071277,57.5068725 48.5735106,57.8484989 C48.6660638,56.4501253 49.0605319,54.9918396 48.7956383,53.6635758 C47.9058511,49.2020374 46.8998936,44.7551582 45.6973404,40.3688286 C45.0718085,38.0883451 45.6143617,36.5331802 47.3645745,35.0627846" mask="url(#icono-estrella-b)"/>
  </g>
</svg>
