<?xml version="1.0" encoding="utf-8"?>
<!-- Generator: Adobe Illustrator 16.0.0, SVG Export Plug-In . SVG Version: 6.00 Build 0)  -->
<!DOCTYPE svg PUBLIC "-//W3C//DTD SVG 1.1//EN" "http://www.w3.org/Graphics/SVG/1.1/DTD/svg11.dtd">
<svg version="1.1" id="Layer_1" xmlns="http://www.w3.org/2000/svg" xmlns:xlink="http://www.w3.org/1999/xlink" x="0px" y="0px"
	 width="20px" height="20px" viewBox="0 0 20 20" enable-background="new 0 0 20 20" xml:space="preserve">
<path fill="#5DF2DA" d="M17.5,6h-15C2.224,6,2,5.776,2,5.5S2.224,5,2.5,5h15C17.775,5,18,5.224,18,5.5S17.775,6,17.5,6z"/>
<path fill="#5DF2DA" d="M17.5,11h-15C2.224,11,2,10.775,2,10.5C2,10.224,2.224,10,2.5,10h15c0.275,0,0.5,0.224,0.5,0.5
	C18,10.775,17.775,11,17.5,11z"/>
<path fill="#5DF2DA" d="M17.5,16h-15C2.224,16,2,15.775,2,15.5S2.224,15,2.5,15h15c0.275,0,0.5,0.225,0.5,0.5S17.775,16,17.5,16z"/>
</svg>
